<svg width="166" height="166" viewBox="0 0 166 166" fill="none" xmlns="http://www.w3.org/2000/svg">
<g clip-path="url(#clip0_888_12667)">
<path d="M3.81513 61.7257C-7.89147 105.415 18.0359 150.323 61.7255 162.029C105.415 173.736 150.323 147.809 162.029 104.119C173.736 60.4295 147.809 15.522 104.119 3.81535C60.4293 -7.89125 15.5217 18.0361 3.81513 61.7257ZM67.5691 140.221C35.924 131.742 17.1443 99.2145 25.6236 67.5693C34.1029 35.9242 66.6302 17.1445 98.2753 25.6238C129.92 34.1031 148.7 66.6304 140.221 98.2755C131.742 129.921 99.2142 148.7 67.5691 140.221Z" fill="#F4F1EA" stroke="#001ECB" stroke-width="0.623363"/>
<path d="M78.7509 147.489C79.5427 147.554 80.066 147.858 80.3208 148.401C80.5745 148.957 80.5806 149.649 80.3391 150.476L78.3602 157.134L80.9584 157.345L80.7246 157.924L78.1821 157.718L77.724 159.679L76.3321 159.566L76.9201 157.615L72.8929 157.288L73.1267 156.709L77.0982 157.032L79.0771 150.374C79.2471 149.815 79.26 149.349 79.1159 148.976C78.9584 148.615 78.6322 148.414 78.1373 148.374C77.7414 148.341 77.3808 148.412 77.0554 148.585C76.729 148.77 76.4301 149.001 76.1585 149.278C75.8736 149.566 75.6149 149.838 75.3825 150.093L74.9305 150.598L74.599 150.309L75.0525 149.786C75.437 149.344 75.8124 148.938 76.1786 148.569C76.5448 148.201 76.9354 147.915 77.3504 147.712C77.752 147.52 78.2189 147.446 78.7509 147.489Z" fill="#001ECB"/>
<path d="M65.8992 145.352C66.2363 145.436 66.4815 145.632 66.6349 145.939C66.7882 146.246 66.7187 146.651 66.4263 147.154L62.9948 152.954C62.7748 153.322 62.6828 153.638 62.7187 153.903C62.7426 154.165 62.9412 154.342 63.3145 154.436C63.8202 154.563 64.3802 154.396 64.9947 153.936C65.5941 153.485 66.2811 152.659 67.0556 151.458C67.8302 150.257 68.73 148.608 69.755 146.51L71.0012 146.823L65.249 158.587L67.4524 159.14L67.2534 159.551L64.937 159.219L63.9388 159.449L63.5053 159.34L65.269 155.751L67.6878 151.616L67.4169 151.548C67.1185 152.024 66.787 152.504 66.4224 152.988C66.0578 153.473 65.6676 153.906 65.2519 154.288C64.8331 154.682 64.3964 154.969 63.9417 155.15C63.4719 155.339 62.9962 155.373 62.5146 155.253C61.9607 155.114 61.5997 154.819 61.4314 154.367C61.251 153.912 61.3477 153.373 61.7215 152.75L65.1484 146.968C65.1756 146.911 65.2163 146.825 65.2705 146.71C65.3248 146.596 65.3414 146.479 65.3205 146.358C65.2964 146.25 65.1881 146.171 64.9955 146.123C64.7547 146.063 64.5243 146.114 64.3044 146.276C64.0725 146.436 63.7788 146.663 63.4234 146.958L62.7727 147.486L62.52 147.192L63.1029 146.704C63.606 146.28 64.0804 145.919 64.5261 145.622C64.9599 145.321 65.4176 145.231 65.8992 145.352Z" fill="#001ECB"/>
<path d="M51.6835 152.869C51.8997 152.963 52.0519 153.111 52.1403 153.312C52.2286 153.513 52.2257 153.722 52.1314 153.938C52.0023 154.234 51.7687 154.443 51.4305 154.567C51.0873 154.701 50.7678 154.704 50.472 154.575C50.2445 154.476 50.0922 154.328 50.0152 154.132C49.9269 153.931 49.9299 153.722 50.0242 153.506C50.1532 153.211 50.3893 152.995 50.7325 152.861C51.0707 152.737 51.3877 152.74 51.6835 152.869ZM57.5916 142.445C58.115 142.674 58.4281 143.027 58.531 143.505C58.6339 143.983 58.483 144.5 58.0785 145.055L53.7861 150.983L56.6703 152.241L56.4916 152.651L53.3741 151.555L52.3517 151.617L51.9421 151.438L56.935 144.556C57.1735 144.227 57.2805 143.935 57.2561 143.68C57.2202 143.421 57.0487 143.224 56.7415 143.09C56.3888 142.936 55.978 142.947 55.5091 143.121C55.0238 143.302 54.4598 143.571 53.8169 143.927L53.2255 144.258L53.0055 143.878L53.6043 143.53C54.5434 142.991 55.3103 142.615 55.9049 142.4C56.4947 142.197 57.0569 142.212 57.5916 142.445Z" fill="#001ECB"/>
<path d="M48.6847 137.792C49.456 138.291 49.9644 138.819 50.2098 139.377C50.4552 139.935 50.4431 140.422 50.1735 140.839C50.0049 141.099 49.8073 141.245 49.5805 141.276C49.3469 141.317 49.1259 141.27 48.9174 141.135C48.6881 140.987 48.5532 140.818 48.5127 140.63C48.4721 140.441 48.4798 140.246 48.5355 140.046C48.574 139.849 48.6267 139.676 48.6935 139.527L49.0031 138.774C48.9185 138.63 48.6886 138.437 48.3133 138.195C47.5836 137.723 46.9371 137.534 46.3738 137.628C45.7933 137.726 45.3581 137.999 45.0683 138.447C44.8256 138.822 44.7261 139.216 44.7698 139.629C44.803 140.034 44.9052 140.448 45.0764 140.869C45.2371 141.283 45.3963 141.711 45.554 142.153C45.7117 142.595 45.8022 143.038 45.8257 143.482C45.8387 143.919 45.707 144.351 45.4307 144.779C45.1543 145.206 44.7869 145.523 44.3284 145.729C43.8699 145.935 43.3544 146.001 42.7818 145.926C42.2024 145.862 41.5948 145.624 40.959 145.213C40.271 144.768 39.8221 144.308 39.6123 143.832C39.4025 143.357 39.4055 142.952 39.6212 142.619C39.7492 142.421 39.9196 142.294 40.1323 142.24C40.3279 142.189 40.5299 142.231 40.7383 142.365C40.9989 142.534 41.1192 142.759 41.099 143.042C41.0789 143.325 41.0259 143.601 40.9402 143.871L40.7969 144.332C40.8251 144.38 40.8898 144.452 40.991 144.547C41.0922 144.642 41.2313 144.746 41.4085 144.861C42.0444 145.272 42.6078 145.429 43.0988 145.333C43.5794 145.23 43.9377 144.996 44.1736 144.631C44.3893 144.298 44.4805 143.928 44.4473 143.522C44.3969 143.12 44.2895 142.703 44.125 142.272C43.9606 141.84 43.8081 141.401 43.6676 140.956C43.5167 140.503 43.4381 140.053 43.4318 139.606C43.4084 139.162 43.5315 138.732 43.8011 138.315C43.9696 138.054 44.2089 137.81 44.519 137.582C44.8187 137.347 45.1813 137.175 45.6067 137.065C46.0149 136.96 46.4815 136.959 47.0063 137.061C47.5206 137.157 48.0801 137.401 48.6847 137.792Z" fill="#001ECB"/>
<path d="M37.9141 129.431C38.2281 129.767 38.3697 130.136 38.3389 130.539C38.2906 130.941 38.0355 131.359 37.5734 131.791C37.0933 132.241 36.4971 132.612 35.785 132.905C35.0728 133.198 34.2973 133.414 33.4585 133.554C32.6111 133.684 31.7531 133.739 30.8843 133.72L29.6601 133.693C29.8213 133.865 29.9551 134.071 30.0613 134.312C30.1586 134.561 30.2646 134.81 30.3794 135.06C30.4857 135.301 30.6237 135.512 30.7934 135.693C30.9376 135.847 31.0839 135.939 31.2322 135.971C31.3714 136.01 31.4767 136.014 31.548 135.981L31.2977 135.578C31.2644 135.524 31.2157 135.399 31.1519 135.204C31.079 135.017 31.1467 134.826 31.355 134.631C31.5544 134.444 31.772 134.368 32.008 134.402C32.235 134.445 32.4163 134.538 32.5521 134.683C32.6624 134.801 32.7314 134.975 32.759 135.204C32.7866 135.433 32.6827 135.658 32.4471 135.879C32.2297 136.082 31.9483 136.227 31.603 136.312C31.2487 136.406 30.8927 136.416 30.535 136.343C30.1688 136.261 29.8627 136.088 29.6166 135.825C29.4215 135.617 29.3183 135.416 29.307 135.223C29.2873 135.02 29.3109 134.836 29.3778 134.672C29.4361 134.498 29.4936 134.35 29.5503 134.229C29.5985 134.099 29.5971 134.007 29.5462 133.953L29.5207 133.925L28.8361 134.72L27.9705 133.796L30.8845 133.311C31.5909 133.194 32.2984 133.041 33.0071 132.854C33.7073 132.657 34.3561 132.424 34.9533 132.154C35.5415 131.892 36.0304 131.578 36.4199 131.214C37.0269 130.645 37.1268 130.143 36.7195 129.708C36.4649 129.437 36.1667 129.291 35.8248 129.271C35.483 129.251 35.157 129.284 34.8468 129.371C34.5366 129.457 34.3147 129.529 34.1811 129.586L33.6342 129.792C33.3171 130.089 32.9783 130.381 32.6176 130.668C32.2484 130.945 31.8892 131.188 31.5399 131.396C31.1906 131.605 30.8744 131.739 30.5914 131.8C30.3084 131.861 30.0947 131.815 29.9505 131.661C29.8656 131.57 29.834 131.464 29.8555 131.341C29.8771 131.219 29.9875 131.065 30.1869 130.878C30.4315 130.649 30.7457 130.44 31.1295 130.25C31.5049 130.052 31.8923 129.884 32.292 129.748C32.6832 129.603 33.0336 129.496 33.3432 129.427L33.6557 129.134C33.7282 129.066 33.8372 128.955 33.9827 128.802C34.1192 128.657 34.252 128.49 34.3811 128.301C34.4927 128.112 34.565 127.917 34.5979 127.716C34.6133 127.514 34.5404 127.327 34.3791 127.155C34.133 126.893 33.7768 126.776 33.3104 126.804C32.8355 126.824 32.3179 126.943 31.7575 127.162C31.1886 127.371 30.6397 127.639 30.1109 127.964C29.5646 128.289 29.1012 128.629 28.7207 128.986C28.3402 129.342 28.0839 129.659 27.9519 129.935C27.8109 130.221 27.7324 130.473 27.7164 130.692C27.7005 130.911 27.6811 131.099 27.6584 131.256C27.638 131.343 27.6077 131.465 27.5674 131.622C27.5181 131.787 27.421 131.938 27.276 132.074C27.1039 132.235 26.908 132.316 26.6884 132.318C26.4688 132.319 26.2784 132.234 26.1172 132.062C25.8541 131.781 25.835 131.425 26.0599 130.993C26.2673 130.561 26.7197 130.018 27.4173 129.365C28.1421 128.686 28.8948 128.091 29.6756 127.581C30.4472 127.079 31.1976 126.691 31.9268 126.416C32.6468 126.15 33.2966 126.018 33.8762 126.019C34.4382 126.02 34.872 126.183 35.1775 126.51C35.4235 126.772 35.5242 127.052 35.4793 127.349C35.426 127.637 35.2982 127.919 35.096 128.193C34.8939 128.468 34.6931 128.698 34.4938 128.885L34.6338 129.034C34.8472 128.953 35.1529 128.871 35.5508 128.788C35.9397 128.712 36.3481 128.713 36.7759 128.788C37.2038 128.864 37.5832 129.078 37.9141 129.431Z" fill="#001ECB"/>
<path d="M30.5951 120.955C30.8708 121.368 30.9107 121.841 30.7148 122.375C30.5017 122.905 29.9736 123.422 29.1304 123.925C28.6727 124.201 28.1255 124.454 27.4887 124.685C26.8347 124.913 26.1463 125.089 25.4234 125.213C24.6936 125.328 23.9775 125.373 23.2752 125.349C22.566 125.315 21.9255 125.183 21.3539 124.953C20.7753 124.712 20.3172 124.339 19.9795 123.833C19.8072 123.575 19.6986 123.334 19.6537 123.11C19.5916 122.883 19.5725 122.709 19.5965 122.589L18.7906 122.052L18.5424 121.681L26.7823 118.396C26.9096 118.341 27.0524 118.253 27.2107 118.132C27.3587 118.019 27.3672 117.864 27.2362 117.667C27.0984 117.461 26.8935 117.344 26.6215 117.317C26.3426 117.279 25.9725 117.25 25.5111 117.23L24.6745 117.184L24.6846 116.796L25.4437 116.827C26.1185 116.854 26.7176 116.902 27.2409 116.97C27.754 117.046 28.1414 117.28 28.4033 117.672C28.5205 117.847 28.5826 118.052 28.5896 118.286C28.6001 118.503 28.5039 118.717 28.3009 118.927C28.0876 119.144 27.7245 119.327 27.2116 119.475L23.2773 120.624L23.4323 120.856L24.4547 120.577C25.0226 120.421 25.6181 120.285 26.2412 120.168C26.8539 120.057 27.4512 120.002 28.033 120.001C28.608 119.99 29.1227 120.057 29.5773 120.202C30.0146 120.342 30.3539 120.594 30.5951 120.955ZM29.7689 121.059C29.5966 120.801 29.3038 120.63 28.8907 120.548C28.4706 120.455 27.9782 120.433 27.4137 120.482C26.8422 120.52 26.2398 120.601 25.6064 120.726C24.9627 120.857 24.3276 121.012 23.7011 121.192C23.0574 121.368 22.4619 121.549 21.9147 121.735C21.3674 121.921 20.9131 122.09 20.5517 122.242C20.4657 122.404 20.4245 122.633 20.4282 122.929C20.4146 123.222 20.5043 123.513 20.6973 123.802C20.9937 124.246 21.4431 124.505 22.0456 124.581C22.631 124.652 23.3074 124.559 24.075 124.3L28.4274 122.872C29.0022 122.682 29.4272 122.414 29.7024 122.066C29.9604 121.714 29.9826 121.379 29.7689 121.059Z" fill="#001ECB"/>
<path d="M29.4551 113.45C29.7198 114.039 29.7969 114.528 29.6864 114.918C29.5759 115.308 29.3565 115.576 29.0282 115.724C28.7451 115.851 28.4667 115.868 28.1928 115.773C27.9353 115.685 27.7429 115.499 27.6156 115.216C27.4426 114.831 27.4696 114.513 27.6966 114.261C27.9287 114.02 28.1971 113.845 28.5016 113.736L29.0094 113.548C28.6174 112.676 27.9721 112.089 27.0734 111.785C26.1861 111.476 25.1189 111.418 23.872 111.612C22.6137 111.81 21.2487 112.24 19.7769 112.902C18.3164 113.558 17.3473 114.157 16.8694 114.699C16.3864 115.229 16.2315 115.686 16.4046 116.071C16.4809 116.241 16.617 116.377 16.8128 116.48C16.9922 116.576 17.2737 116.688 17.6574 116.815L18.2083 116.996L18.1038 117.308L17.5189 117.142C17.052 117.012 16.6304 116.861 16.2541 116.69C15.8727 116.508 15.5954 116.224 15.4224 115.839C15.1679 115.273 15.2957 114.665 15.8059 114.013C16.316 113.362 17.3297 112.695 18.8467 112.013C19.7751 111.596 20.666 111.277 21.5196 111.056C22.3568 110.83 23.1048 110.677 23.7636 110.599C24.4225 110.52 24.9455 110.503 25.3326 110.547C24.6105 110.272 23.847 110.058 23.0422 109.902C22.221 109.741 21.414 109.641 20.621 109.603C19.823 109.553 19.0807 109.567 18.3942 109.644C17.6963 109.727 17.1209 109.87 16.668 110.073C16.2718 110.252 15.9859 110.448 15.8104 110.663C15.6235 110.883 15.4619 111.099 15.3254 111.31C15.1838 111.51 14.9772 111.671 14.7055 111.793C14.4111 111.925 14.1516 111.953 13.9269 111.877C13.6972 111.79 13.5288 111.628 13.4219 111.39C13.3049 111.13 13.3296 110.867 13.4961 110.601C13.6512 110.341 14.0062 110.086 14.5609 109.837C15.2063 109.547 15.9761 109.337 16.8704 109.207C17.7483 109.071 18.6952 109.012 19.7111 109.032C20.7157 109.057 21.7251 109.168 22.7393 109.365C23.7371 109.556 24.6867 109.837 25.5882 110.207C26.496 110.561 27.2831 111.01 27.9496 111.554C28.6275 112.093 29.1293 112.725 29.4551 113.45Z" fill="#001ECB"/>
<path d="M12.3325 95.8608L11.7634 97.0377L9.11692 95.308L9.04677 95.3392L8.99564 98.5048L7.71455 98.3131L8.54423 95.2759L8.47638 95.2121L5.46245 96.1363L5.23786 94.8524L8.38654 94.6986L8.42873 94.6156L6.6173 92.0404L7.76044 91.4435L8.87994 94.3854L8.95651 94.3909L10.8586 91.8655L11.7935 92.7794L9.3421 94.7582L9.35493 94.8316L12.3325 95.8608Z" fill="#001ECB"/>
<path d="M18.4237 79.2782C18.3655 80.0705 18.0655 80.5961 17.5238 80.855C16.9696 81.1131 16.278 81.1245 15.4489 80.8894L8.77597 78.9618L8.58508 81.5616L8.00449 81.3323L8.19129 78.7882L6.22615 78.3452L6.32841 76.9525L8.284 77.5255L8.57988 73.4959L9.16047 73.7252L8.86869 77.6991L15.5416 79.6266C16.102 79.7923 16.568 79.8016 16.9398 79.6546C17.3001 79.4944 17.4984 79.1667 17.5347 78.6715C17.5638 78.2753 17.4907 77.9152 17.3153 77.5912C17.1276 77.2662 16.8943 76.9691 16.6153 76.6997C16.3249 76.417 16.0513 76.1604 15.7944 75.9299L15.2858 75.4819L15.5717 75.1481L16.0988 75.5976C16.5438 75.9787 16.9521 76.351 17.3237 76.7143C17.6953 77.0777 17.9842 77.466 18.1903 77.8795C18.385 78.2796 18.4627 78.7458 18.4237 79.2782Z" fill="#001ECB"/>
<path d="M20.4547 66.425C20.3728 66.7628 20.1788 67.0095 19.8728 67.1652C19.5667 67.3208 19.1613 67.2544 18.6566 66.9659L12.83 63.5786C12.4612 63.3614 12.1444 63.2717 11.8798 63.3097C11.618 63.3356 11.4418 63.5355 11.351 63.9095C11.2281 64.4161 11.3991 64.9749 11.8639 65.5859C12.3197 66.1819 13.1508 66.8625 14.3574 67.6279C15.5639 68.3933 17.22 69.2805 19.3254 70.2895L19.0224 71.5381L7.21443 65.8755L6.67877 68.0831L6.26646 67.8872L6.58005 65.5683L6.34283 64.5719L6.4482 64.1377L10.0505 65.8739L14.2037 68.2612L14.2696 67.9898C13.7918 67.6951 13.3094 67.3672 12.8221 67.0063C12.3349 66.6454 11.8987 66.2585 11.5135 65.8457C11.1162 65.43 10.8257 64.9955 10.6419 64.5421C10.449 64.0738 10.411 63.5984 10.5281 63.1158C10.6628 62.561 10.9553 62.1976 11.4057 62.0259C11.8591 61.8421 12.3986 61.9347 13.0244 62.3037L18.8329 65.6866C18.8902 65.7133 18.9763 65.7534 19.0911 65.8068C19.2059 65.8601 19.3234 65.8759 19.4437 65.854C19.5519 65.8291 19.6294 65.7202 19.6762 65.5272C19.7348 65.286 19.682 65.056 19.5179 64.8374C19.3568 64.6067 19.1274 64.3147 18.8299 63.9615L18.2971 63.3149L18.5888 63.06L19.0806 63.6391C19.5086 64.139 19.8731 64.6106 20.1742 65.0541C20.4783 65.4855 20.5718 65.9425 20.4547 66.425Z" fill="#001ECB"/>
<path d="M12.8201 52.2692C12.7274 52.4861 12.5809 52.6395 12.3805 52.7293C12.1801 52.8192 11.9715 52.8177 11.7546 52.7251C11.4578 52.5982 11.2465 52.3662 11.1207 52.0289C10.9834 51.6868 10.9782 51.3673 11.105 51.0705C11.2026 50.8422 11.3491 50.6889 11.5447 50.6104C11.745 50.5206 11.9537 50.522 12.1705 50.6147C12.4673 50.7415 12.6843 50.976 12.8216 51.3182C12.9474 51.6554 12.9469 51.9725 12.8201 52.2692ZM23.2876 58.0994C23.0632 58.6245 22.7123 58.9402 22.2349 59.0467C21.7574 59.1531 21.2398 59.0061 20.6819 58.6057L14.7219 54.3577L13.4853 57.2512L13.0744 57.0756L14.1469 53.95L14.0774 52.9281L14.2531 52.5172L21.1722 57.4586C21.5033 57.6946 21.796 57.7994 22.0502 57.7731C22.3093 57.7353 22.5047 57.5624 22.6364 57.2542C22.7877 56.9003 22.7742 56.4896 22.5961 56.022C22.4114 55.5381 22.1386 54.976 21.7778 54.3359L21.4422 53.747L21.821 53.5241L22.1736 54.1203C22.719 55.0553 23.1012 55.8194 23.3202 56.4124C23.5278 57.0006 23.5169 57.563 23.2876 58.0994Z" fill="#001ECB"/>
<path d="M27.9514 49.0119C27.4555 49.785 26.9291 50.2953 26.3722 50.5428C25.8153 50.7902 25.3279 50.7799 24.91 50.5118C24.6488 50.3443 24.5024 50.1471 24.4708 49.9204C24.4288 49.687 24.4748 49.4658 24.6089 49.2569C24.7563 49.027 24.9244 48.8915 25.113 48.8503C25.3017 48.8091 25.4964 48.8159 25.697 48.8709C25.894 48.9088 26.0671 48.9608 26.2163 49.027L26.9706 49.3339C27.1137 49.2488 27.3059 49.0181 27.5472 48.642C28.0163 47.9106 28.2029 47.2634 28.1069 46.7004C28.0071 46.1202 27.7326 45.6861 27.2833 45.3979C26.9071 45.1566 26.5129 45.0585 26.1005 45.1037C25.6948 45.1384 25.2817 45.2421 24.8612 45.4149C24.4474 45.5771 24.0199 45.7379 23.5785 45.8972C23.1371 46.0565 22.6946 46.1487 22.2508 46.1738C21.8138 46.1884 21.3811 46.0583 20.9527 45.7835C20.5243 45.5087 20.2062 45.1425 19.9984 44.6847C19.7906 44.227 19.723 43.7117 19.7955 43.1388C19.8575 42.5593 20.093 41.9508 20.5018 41.3135C20.9441 40.6239 21.4027 40.1733 21.8776 39.9617C22.3525 39.7502 22.7571 39.7517 23.0915 39.9661C23.29 40.0935 23.4169 40.2634 23.4723 40.4759C23.524 40.6712 23.4828 40.8734 23.3488 41.0824C23.1812 41.3436 22.9561 41.4646 22.6734 41.4455C22.3907 41.4264 22.1144 41.3745 21.8443 41.2897L21.3821 41.1481C21.3344 41.1765 21.2632 41.2415 21.1686 41.343C21.074 41.4445 20.9697 41.5841 20.8558 41.7617C20.447 42.3991 20.2917 42.9631 20.3898 43.4537C20.4947 43.9339 20.73 44.2913 21.0957 44.5259C21.4301 44.7404 21.8001 44.8302 22.2058 44.7955C22.6078 44.7436 23.0242 44.6347 23.4551 44.4687C23.886 44.3027 24.3241 44.1486 24.7692 44.0064C25.221 43.8538 25.6706 43.7736 26.1181 43.7657C26.5619 43.7406 26.9927 43.8621 27.4107 44.1302C27.6719 44.2978 27.9171 44.5362 28.1464 44.8455C28.3824 45.1443 28.5558 45.5062 28.6666 45.9312C28.7736 46.3391 28.7767 46.8056 28.6758 47.3308C28.5816 47.8455 28.3402 48.4059 27.9514 49.0119Z" fill="#001ECB"/>
<path d="M36.173 38.2582C35.8389 38.5734 35.4704 38.7164 35.0673 38.6871C34.6647 38.6402 34.2462 38.3866 33.8118 37.9261C33.3603 37.4476 32.9868 36.8528 32.6914 36.1417C32.3959 35.4307 32.177 34.6559 32.0345 33.8176C31.9011 32.9707 31.8426 32.1129 31.8591 31.244L31.8815 30.0197C31.71 30.1816 31.5041 30.3161 31.2639 30.4233C31.0152 30.5214 30.7662 30.6283 30.5169 30.744C30.2767 30.8512 30.0663 30.9899 29.8858 31.1603C29.7323 31.3051 29.6402 31.4517 29.6096 31.6001C29.5704 31.7395 29.5673 31.8448 29.6004 31.916L30.0028 31.6642C30.0565 31.6307 30.1809 31.5816 30.3759 31.517C30.5625 31.4434 30.7537 31.5105 30.9496 31.7181C31.137 31.9167 31.2141 32.1341 31.1809 32.3702C31.1392 32.5973 31.0461 32.779 30.9016 32.9153C30.7843 33.0261 30.611 33.0957 30.3819 33.1241C30.1527 33.1526 29.9274 33.0495 29.706 32.8147C29.5015 32.598 29.356 32.3172 29.2694 31.9722C29.1744 31.6182 29.1628 31.2622 29.2346 30.9043C29.3155 30.5378 29.4869 30.2311 29.7487 29.9841C29.9564 29.7881 30.157 29.6842 30.3505 29.6723C30.5531 29.6518 30.7368 29.6747 30.9017 29.741C31.0757 29.7987 31.2233 29.8557 31.3446 29.9119C31.4749 29.9596 31.5672 29.9579 31.6214 29.9068L31.6484 29.8812L30.8516 29.1995L31.7726 28.3306L32.2674 31.2427C32.3874 31.9487 32.5425 32.6557 32.7326 33.3637C32.9318 34.0632 33.1676 34.7111 33.4401 35.3073C33.704 35.8946 34.0191 36.3823 34.3854 36.7705C34.9561 37.3755 35.4582 37.4735 35.8916 37.0646C36.1624 36.809 36.3072 36.5103 36.326 36.1684C36.3447 35.8265 36.3103 35.5006 36.2227 35.1907C36.1351 34.8808 36.0625 34.6592 36.0049 34.5258L35.7969 33.9797C35.4987 33.6637 35.2056 33.3259 34.9175 32.9662C34.6384 32.5981 34.3942 32.2398 34.1848 31.8912C33.9754 31.5427 33.8397 31.227 33.7777 30.9442C33.7157 30.6614 33.7614 30.4476 33.9149 30.3028C34.0052 30.2176 34.1115 30.1855 34.2338 30.2067C34.3561 30.2278 34.511 30.3377 34.6984 30.5363C34.9284 30.7801 35.1388 31.0935 35.3296 31.4767C35.5295 31.8513 35.6982 32.2382 35.8359 32.6373C35.9826 33.0279 36.091 33.3779 36.161 33.6873L36.4549 33.9988C36.5231 34.071 36.634 34.1796 36.7879 34.3246C36.9332 34.4606 37.1006 34.5927 37.2901 34.7212C37.48 34.8321 37.6755 34.9036 37.8765 34.9358C38.0781 34.9505 38.2646 34.8769 38.4362 34.715C38.698 34.468 38.8137 34.1113 38.7834 33.645C38.7621 33.1702 38.641 32.653 38.4202 32.0934C38.2084 31.5252 37.9389 30.9774 37.6118 30.4498C37.2852 29.9046 36.943 29.4425 36.5852 29.0632C36.2275 28.684 35.91 28.4289 35.6328 28.2979C35.3471 28.1579 35.0947 28.0803 34.8756 28.0652C34.6565 28.05 34.4683 28.0314 34.3109 28.0092C34.2236 27.9891 34.1016 27.9593 33.9447 27.9196C33.7792 27.8709 33.6284 27.7743 33.4921 27.6298C33.3302 27.4583 33.2481 27.2627 33.2457 27.0431C33.2433 26.8235 33.3279 26.6328 33.4994 26.4709C33.7793 26.2068 34.1355 26.1865 34.5681 26.4098C35.0012 26.6156 35.5457 27.0661 36.2016 27.7613C36.8831 28.4836 37.4803 29.2342 37.9933 30.013C38.4978 30.7829 38.8887 31.5318 39.1661 32.26C39.435 32.979 39.5698 33.6284 39.5705 34.2079C39.5717 34.77 39.4098 35.2043 39.0848 35.511C38.8229 35.758 38.5434 35.8597 38.2461 35.8159C37.9578 35.7636 37.6761 35.6369 37.401 35.4357C37.1259 35.2345 36.8946 35.0346 36.7072 34.836L36.5582 34.9765C36.6398 35.1896 36.7231 35.495 36.8082 35.8926C36.8847 36.2812 36.886 36.6896 36.8121 37.1177C36.7381 37.5458 36.5251 37.926 36.173 38.2582Z" fill="#001ECB"/>
<path d="M44.6339 30.8528C44.222 31.13 43.7488 31.1716 43.2143 30.9777C42.6832 30.7666 42.1645 30.2403 41.6582 29.399C41.3808 28.9423 41.1254 28.396 40.892 27.7601C40.662 27.107 40.4834 26.4192 40.3563 25.6968C40.2396 24.9674 40.1917 24.2515 40.2128 23.5491C40.2442 22.8397 40.3739 22.1988 40.6021 21.6263C40.8406 21.0469 41.2122 20.5874 41.7168 20.2478C41.9743 20.0746 42.2148 19.9651 42.4384 19.9194C42.6653 19.8564 42.8391 19.8367 42.9597 19.8603L43.4933 19.0524L43.864 18.8029L47.1788 27.0306C47.2345 27.1578 47.3229 27.3003 47.4441 27.4581C47.5583 27.6057 47.7133 27.6136 47.9089 27.4819C48.1149 27.3433 48.2311 27.138 48.2575 26.8659C48.2941 26.5869 48.3218 26.2166 48.3404 25.7552L48.3833 24.9184L48.7707 24.9271L48.743 25.6864C48.7183 26.3613 48.6727 26.9605 48.6061 27.4841C48.5326 27.9974 48.3002 28.3857 47.9088 28.649C47.7338 28.7669 47.5292 28.8297 47.2951 28.8376C47.0783 28.8489 46.8644 28.7534 46.6535 28.5512C46.4357 28.3387 46.2517 27.9763 46.1014 27.4639L44.938 23.5338L44.7063 23.6898L44.9895 24.711C45.1469 25.2784 45.2855 25.8734 45.4052 26.4961C45.518 27.1084 45.5757 27.7055 45.5782 28.2873C45.591 28.8622 45.5261 29.3772 45.3835 29.8322C45.2442 30.2701 44.9944 30.6103 44.6339 30.8528ZM44.5271 30.027C44.7845 29.8537 44.9537 29.5604 45.0345 29.1469C45.1257 28.7265 45.1459 28.2341 45.0953 27.6697C45.0549 27.0983 44.9714 26.4962 44.8448 25.8633C44.7111 25.2201 44.5535 24.5855 44.3718 23.9597C44.1934 23.3167 44.0101 22.7219 43.8218 22.1753C43.6335 21.6287 43.4629 21.175 43.3098 20.8142C43.1477 20.7288 42.9185 20.6885 42.6225 20.6932C42.3298 20.6807 42.0393 20.7715 41.7509 20.9655C41.3081 21.2635 41.0501 21.7139 40.9769 22.3167C40.9072 22.9023 41.003 23.5784 41.2646 24.345L42.7087 28.6922C42.9005 29.2663 43.1709 29.6903 43.5198 29.9642C43.872 30.2209 44.2078 30.2418 44.5271 30.027Z" fill="#001ECB"/>
<path d="M52.2383 29.6042C51.6506 29.8711 51.1616 29.95 50.7712 29.8409C50.3809 29.7319 50.1113 29.5135 49.9625 29.1857C49.8342 28.9031 49.8168 28.6247 49.9104 28.3505C49.9978 28.0927 50.1828 27.8996 50.4654 27.7713C50.8497 27.5968 51.1681 27.6226 51.4207 27.8487C51.6621 28.0799 51.8382 28.3476 51.949 28.6517L52.1383 29.1588C53.0086 28.7636 53.5939 28.1161 53.8942 27.2163C54.1997 26.3278 54.2535 25.2604 54.0557 24.0142C53.8528 22.7567 53.4177 21.3933 52.7505 19.924C52.0885 18.466 51.4858 17.4991 50.9425 17.0232C50.4106 16.5422 49.9525 16.389 49.5682 16.5635C49.3986 16.6405 49.263 16.777 49.1612 16.9732C49.0656 17.153 48.9551 17.4349 48.8296 17.8191L48.6506 18.3707L48.3378 18.2673L48.5014 17.6818C48.63 17.2144 48.7791 16.7923 48.9488 16.4153C49.1297 16.0332 49.4123 15.7549 49.7966 15.5804C50.3617 15.3238 50.9709 15.4494 51.6241 15.9571C52.2772 16.4649 52.9477 17.476 53.6354 18.9905C54.0563 19.9173 54.3785 20.8071 54.6021 21.6598C54.8319 22.4962 54.9873 23.2436 55.0682 23.9021C55.1491 24.5607 55.1684 25.0836 55.1261 25.4709C55.3976 24.7477 55.6095 23.9835 55.7619 23.1781C55.9204 22.3563 56.0173 21.5489 56.0525 20.7558C56.0991 19.9576 56.0824 19.2154 56.0025 18.5291C55.9175 17.8315 55.7724 17.2567 55.5671 16.8046C55.3874 16.409 55.1898 16.1239 54.9741 15.9491C54.7533 15.7631 54.5371 15.6023 54.3256 15.4666C54.1253 15.3258 53.9636 15.1197 53.8404 14.8485C53.707 14.5546 53.6778 14.2952 53.7529 14.0702C53.8392 13.8402 54.0011 13.6712 54.2385 13.5634C54.4984 13.4454 54.7614 13.4691 55.0274 13.6346C55.2883 13.7888 55.5445 14.1428 55.7959 14.6966C56.0885 15.3409 56.3014 16.1099 56.4346 17.0037C56.5739 17.8811 56.6357 18.8278 56.6199 19.8438C56.599 20.8485 56.4918 21.8583 56.2983 22.8732C56.1109 23.8717 55.8337 24.8224 55.4666 25.7252C55.1159 26.6343 54.6698 27.4231 54.1281 28.0917C53.5916 28.7715 52.9617 29.2757 52.2383 29.6042Z" fill="#001ECB"/>
<path d="M69.3489 12.4764L68.1676 11.9163L69.877 9.25665L69.8453 9.18674L66.6793 9.15984L66.8613 7.87731L69.9047 8.68373L69.968 8.61539L69.0208 5.60862L70.3029 5.37422L70.4808 8.52163L70.5641 8.56318L73.1254 6.7321L73.731 7.87063L70.7977 9.01261L70.7928 9.08922L73.3327 10.972L72.426 11.9138L70.4284 9.47761L70.3552 9.49101L69.3489 12.4764Z" fill="#001ECB"/>
<path d="M86.3483 18.4135C85.5558 18.3584 85.029 18.0605 84.768 17.5197C84.5078 16.9666 84.4937 16.275 84.7256 15.445L86.6274 8.76471L84.027 8.58384L84.2541 8.00237L86.7988 8.17936L87.2342 6.21253L88.6273 6.30943L88.0619 8.26721L92.0926 8.54756L91.8655 9.12903L87.8905 8.85256L85.9887 15.5329C85.8253 16.0939 85.8177 16.56 85.9661 16.9311C86.1277 17.2908 86.4562 17.4878 86.9516 17.5223C87.3478 17.5498 87.7076 17.4753 88.031 17.2987C88.3552 17.1097 88.6515 16.8753 88.9198 16.5953C89.2014 16.3038 89.4569 16.0292 89.6864 15.7714L90.1325 15.2611L90.4673 15.5457L90.0199 16.0745C89.6405 16.521 89.2698 16.9307 88.9079 17.3037C88.546 17.6767 88.1587 17.9671 87.7461 18.1748C87.3467 18.371 86.8808 18.4506 86.3483 18.4135Z" fill="#001ECB"/>
<path d="M99.2559 20.3956C98.9179 20.3149 98.6704 20.1218 98.5136 19.8164C98.3568 19.511 98.4217 19.1054 98.7083 18.5995L102.073 12.7601C102.289 12.3904 102.378 12.0733 102.339 11.8088C102.312 11.5472 102.111 11.3717 101.737 11.2824C101.23 11.1614 100.672 11.3344 100.062 11.8016C99.4682 12.2596 98.7907 13.0934 98.0299 14.3028C97.2691 15.5123 96.3882 17.1717 95.3872 19.2809L94.1375 18.9827L99.7551 7.15328L97.5455 6.62602L97.7398 6.21297L100.06 6.51774L101.055 6.27672L101.49 6.38044L99.7674 9.9893L97.396 14.1516L97.6676 14.2164C97.9606 13.7376 98.2866 13.2538 98.6456 12.7652C99.0047 12.2767 99.3899 11.839 99.8012 11.4522C100.215 11.0533 100.649 10.7611 101.101 10.5756C101.569 10.3809 102.044 10.3412 102.527 10.4564C103.083 10.589 103.447 10.8801 103.621 11.3299C103.806 11.7825 103.716 12.3224 103.349 12.9496L99.9882 18.7709C99.9617 18.8284 99.922 18.9146 99.869 19.0296C99.8161 19.1446 99.8008 19.2622 99.8231 19.3824C99.8484 19.4905 99.9576 19.5676 100.151 19.6137C100.392 19.6713 100.622 19.6177 100.84 19.4527C101.07 19.2907 101.361 19.0602 101.713 18.7614L102.358 18.2261L102.614 18.5169L102.037 19.0108C101.538 19.4407 101.068 19.8071 100.626 20.1099C100.196 20.4156 99.7389 20.5108 99.2559 20.3956Z" fill="#001ECB"/>
<path d="M113.423 12.7195C113.206 12.6276 113.052 12.4817 112.962 12.2816C112.871 12.0816 112.872 11.8729 112.964 11.6557C113.089 11.3585 113.321 11.1463 113.657 11.0192C113.999 10.8807 114.318 10.8743 114.616 11C114.844 11.0967 114.998 11.2427 115.077 11.4379C115.168 11.6379 115.167 11.8466 115.076 12.0638C114.95 12.361 114.716 12.5789 114.374 12.7174C114.038 12.8446 113.721 12.8452 113.423 12.7195ZM107.632 23.2087C107.106 22.9863 106.789 22.6366 106.681 22.1595C106.573 21.6824 106.718 21.1643 107.116 20.6049L111.342 14.6291L108.444 13.4033L108.618 12.9917L111.748 14.0526L112.769 13.9793L113.181 14.1534L108.265 21.0909C108.031 21.4229 107.927 21.716 107.954 21.9701C107.993 22.2291 108.167 22.4238 108.475 22.5544C108.83 22.7043 109.24 22.6893 109.707 22.5094C110.19 22.323 110.751 22.0481 111.39 21.6848L111.978 21.3471L112.202 21.725L111.607 22.0799C110.674 22.6287 109.912 23.0137 109.319 23.235C108.732 23.4448 108.17 23.436 107.632 23.2087Z" fill="#001ECB"/>
<path d="M116.424 27.6463C115.648 27.156 115.133 26.6334 114.882 26.0783C114.63 25.5233 114.637 25.0358 114.902 24.6159C115.068 24.3535 115.264 24.2057 115.49 24.1724C115.723 24.1287 115.945 24.1731 116.155 24.3056C116.386 24.4514 116.523 24.6184 116.565 24.8068C116.608 24.9951 116.602 25.1898 116.549 25.3909C116.512 25.5881 116.462 25.7616 116.396 25.9113L116.095 26.6679C116.181 26.8104 116.413 27.0008 116.791 27.2394C117.526 27.7031 118.175 27.8849 118.737 27.7847C119.316 27.6807 119.748 27.403 120.033 26.9516C120.272 26.5737 120.367 26.1787 120.319 25.7667C120.281 25.3612 120.174 24.9489 119.999 24.5297C119.833 24.1172 119.669 23.6908 119.507 23.2506C119.344 22.8104 119.249 22.3685 119.221 21.925C119.203 21.4881 119.33 21.0544 119.601 20.624C119.873 20.1936 120.237 19.8729 120.693 19.6617C121.149 19.4506 121.664 19.3791 122.237 19.4474C122.817 19.5053 123.428 19.7362 124.068 20.1404C124.761 20.5776 125.215 21.0329 125.43 21.5062C125.645 21.9795 125.646 22.3841 125.434 22.72C125.308 22.9195 125.139 23.0477 124.927 23.1047C124.732 23.1578 124.53 23.1181 124.32 22.9855C124.057 22.8199 123.935 22.5957 123.952 22.3129C123.969 22.0301 124.019 21.7533 124.101 21.4826L124.24 21.0194C124.211 20.9719 124.145 20.9012 124.043 20.8074C123.941 20.7135 123.801 20.6102 123.622 20.4976C122.982 20.0935 122.417 19.9423 121.927 20.0441C121.447 20.1525 121.092 20.3904 120.86 20.7578C120.648 21.0938 120.561 21.4644 120.598 21.8699C120.653 22.2714 120.765 22.687 120.934 23.1167C121.104 23.5464 121.261 23.9833 121.406 24.4274C121.562 24.8781 121.646 25.3271 121.657 25.7745C121.685 26.2181 121.567 26.6498 121.302 27.0697C121.136 27.3321 120.9 27.5791 120.592 27.8106C120.295 28.0488 119.934 28.2249 119.51 28.3388C119.103 28.4489 118.637 28.4554 118.111 28.3583C117.595 28.2679 117.033 28.0305 116.424 27.6463Z" fill="#001ECB"/>
<path d="M127.563 36.0695C127.246 35.7366 127.102 35.3685 127.13 34.9653C127.175 34.5626 127.427 34.1432 127.886 33.707C128.363 33.2538 128.956 32.8782 129.666 32.5802C130.376 32.2822 131.15 32.0604 131.988 31.9149C132.835 31.7784 133.692 31.7168 134.561 31.7301L135.786 31.7481C135.623 31.5771 135.488 31.3717 135.38 31.1319C135.281 30.8835 135.173 30.635 135.056 30.3861C134.948 30.1463 134.809 29.9364 134.638 29.7565C134.492 29.6035 134.345 29.512 134.197 29.4819C134.057 29.4432 133.952 29.4405 133.881 29.4738L134.134 29.8754C134.168 29.9289 134.217 30.0531 134.283 30.2479C134.357 30.4342 134.291 30.6257 134.084 30.8224C133.886 31.0105 133.669 31.0884 133.432 31.056C133.205 31.0151 133.023 30.9227 132.886 30.7787C132.775 30.6618 132.705 30.4888 132.676 30.2597C132.646 30.0307 132.749 29.805 132.983 29.5827C133.199 29.3775 133.479 29.2309 133.824 29.1431C134.177 29.0468 134.533 29.0339 134.891 29.1044C135.258 29.184 135.565 29.3543 135.813 29.6152C136.01 29.8221 136.115 30.0224 136.127 30.2158C136.149 30.4183 136.126 30.6021 136.061 30.7673C136.004 30.9414 135.947 31.0893 135.891 31.2108C135.844 31.3413 135.846 31.4335 135.897 31.4875L135.923 31.5145L136.602 30.7152L137.474 31.633L134.564 32.1384C133.858 32.261 133.152 32.4186 132.445 32.6113C131.746 32.8131 131.099 33.0512 130.504 33.3258C129.917 33.5919 129.431 33.9088 129.044 34.2765C128.441 34.8494 128.345 35.3518 128.755 35.7837C129.012 36.0537 129.311 36.1974 129.653 36.2148C129.995 36.2323 130.321 36.1967 130.63 36.108C130.94 36.0193 131.161 35.9459 131.294 35.8878L131.84 35.6778C132.155 35.3785 132.491 35.0842 132.85 34.7948C133.217 34.5143 133.575 34.2688 133.922 34.0582C134.27 33.8475 134.585 33.7106 134.868 33.6476C135.151 33.5845 135.364 33.6295 135.51 33.7825C135.595 33.8724 135.628 33.9786 135.607 34.101C135.586 34.2234 135.477 34.3787 135.279 34.5668C135.036 34.7977 134.724 35.0092 134.341 35.2015C133.967 35.4027 133.581 35.5728 133.182 35.712C132.792 35.8601 132.443 35.9697 132.133 36.0409L131.823 36.3359C131.751 36.4043 131.643 36.5157 131.498 36.6701C131.363 36.8159 131.231 36.9838 131.104 37.1737C130.994 37.364 130.923 37.5598 130.891 37.7609C130.877 37.9625 130.952 38.1488 131.114 38.3197C131.362 38.5807 131.719 38.6951 132.185 38.6631C132.66 38.64 133.177 38.5171 133.736 38.2942C134.303 38.0804 134.85 37.8089 135.376 37.4799C135.92 37.1513 136.381 36.8074 136.759 36.4483C137.137 36.0891 137.391 35.7707 137.521 35.4931C137.66 35.2069 137.737 34.9542 137.751 34.735C137.765 34.5159 137.783 34.3276 137.805 34.1701C137.825 34.0828 137.854 33.9606 137.893 33.8036C137.941 33.638 138.037 33.4868 138.181 33.3499C138.352 33.1875 138.547 33.1046 138.767 33.1014C138.987 33.0982 139.178 33.1821 139.34 33.3531C139.605 33.632 139.627 33.9882 139.405 34.4215C139.201 34.8553 138.752 35.4015 138.06 36.0599C137.34 36.744 136.591 37.344 135.814 37.8598C135.046 38.3671 134.299 38.7608 133.572 39.0408C132.854 39.3123 132.205 39.4494 131.625 39.4522C131.063 39.4555 130.628 39.2952 130.32 38.9712C130.072 38.7103 129.97 38.4311 130.013 38.1337C130.064 37.8452 130.189 37.5631 130.39 37.2872C130.59 37.0113 130.789 36.7793 130.987 36.5912L130.846 36.4427C130.633 36.5251 130.328 36.6096 129.931 36.696C129.542 36.774 129.134 36.7767 128.705 36.7044C128.277 36.632 127.896 36.4204 127.563 36.0695Z" fill="#001ECB"/>
<path d="M134.995 44.5187C134.717 44.1078 134.673 43.6347 134.865 43.0996C135.074 42.5677 135.599 42.0471 136.438 41.5377C136.894 41.2586 137.439 41.0012 138.074 40.7655C138.727 40.5331 139.414 40.352 140.136 40.2223C140.865 40.1028 141.58 40.0524 142.283 40.0709C142.992 40.0996 143.634 40.2271 144.207 40.4532C144.787 40.6895 145.248 41.0594 145.59 41.5628C145.764 41.8196 145.874 42.0597 145.921 42.2832C145.984 42.5099 146.005 42.6836 145.982 42.8043L146.791 43.3349L147.042 43.7047L138.827 47.0496C138.7 47.1057 138.558 47.1946 138.4 47.3164C138.253 47.4312 138.246 47.5862 138.378 47.7814C138.517 47.9868 138.723 48.1022 138.995 48.1276C139.275 48.1633 139.645 48.1896 140.106 48.2065L140.943 48.2463L140.936 48.6337L140.177 48.6088C139.502 48.5866 138.902 48.5432 138.379 48.4785C137.865 48.4069 137.476 48.1759 137.211 47.7855C137.093 47.6109 137.029 47.4065 137.02 47.1725C137.008 46.9557 137.103 46.7415 137.304 46.5298C137.516 46.3113 137.878 46.1259 138.39 45.9738L142.315 44.796L142.159 44.5648L141.138 44.8518C140.572 45.0113 139.977 45.152 139.355 45.274C138.743 45.3891 138.146 45.449 137.564 45.4536C136.989 45.4685 136.474 45.4055 136.019 45.2645C135.58 45.1269 135.239 44.8783 134.995 44.5187ZM135.821 44.4088C135.995 44.6657 136.289 44.8337 136.703 44.9131C137.123 45.0027 137.616 45.0211 138.18 44.9684C138.751 44.926 139.353 44.8403 139.986 44.7113C140.628 44.5753 141.262 44.4153 141.887 44.2313C142.53 44.0506 143.124 43.8651 143.67 43.6748C144.216 43.4846 144.669 43.3122 145.029 43.1579C145.114 42.9954 145.153 42.7661 145.147 42.4701C145.159 42.1773 145.067 41.8871 144.872 41.5995C144.572 41.1578 144.121 40.9014 143.518 40.8305C142.932 40.7629 142.256 40.8612 141.491 41.1255L137.149 42.5856C136.575 42.7795 136.152 43.0514 135.88 43.4013C135.624 43.7545 135.605 44.0904 135.821 44.4088Z" fill="#001ECB"/>
<path d="M136.091 51.8113C135.82 51.2255 135.738 50.7371 135.844 50.346C135.95 49.9548 136.166 49.6836 136.493 49.5324C136.774 49.4019 137.053 49.3825 137.328 49.4741C137.586 49.5596 137.781 49.7431 137.911 50.0247C138.088 50.4077 138.065 50.7263 137.841 50.9806C137.611 51.2237 137.345 51.4017 137.042 51.5148L136.536 51.708C136.938 52.5753 137.589 53.1557 138.491 53.4494C139.382 53.7482 140.45 53.7941 141.695 53.587C142.951 53.3747 144.311 52.9295 145.775 52.2514C147.228 51.5785 148.19 50.9687 148.662 50.4219C149.139 49.8863 149.289 49.4271 149.112 49.0441C149.034 48.8752 148.896 48.7405 148.699 48.6402C148.519 48.5459 148.236 48.4375 147.851 48.3149L147.298 48.14L147.399 47.8265L147.986 47.9857C148.454 48.1108 148.877 48.2568 149.255 48.4236C149.639 48.6017 149.919 48.8823 150.097 49.2652C150.357 49.8284 150.236 50.4385 149.733 51.0954C149.231 51.7524 148.224 52.4303 146.715 53.1293C145.791 53.557 144.904 53.8859 144.053 54.1159C143.218 54.3519 142.472 54.5128 141.814 54.5986C141.156 54.6844 140.634 54.7076 140.246 54.6682C140.971 54.9343 141.737 55.1405 142.543 55.2869C143.366 55.4393 144.174 55.5302 144.968 55.5595C145.766 55.6001 146.508 55.5779 147.194 55.4929C147.891 55.4027 148.465 55.2533 148.915 55.0446C149.31 54.8621 149.593 54.6623 149.766 54.4453C149.951 54.2232 150.11 54.0058 150.244 53.7932C150.383 53.5919 150.588 53.4286 150.859 53.3034C151.151 53.1678 151.411 53.1367 151.636 53.2101C151.867 53.2948 152.037 53.4554 152.146 53.6919C152.266 53.951 152.245 54.2142 152.081 54.4814C151.929 54.7434 151.577 55.0022 151.025 55.2578C150.383 55.5551 149.615 55.7737 148.723 55.9136C147.846 56.0595 146.9 56.1283 145.884 56.1201C144.879 56.1066 143.869 56.0069 142.852 55.821C141.852 55.6411 140.9 55.3709 139.994 55.0106C139.083 54.6667 138.29 54.2264 137.618 53.6898C136.934 53.1583 136.425 52.5321 136.091 51.8113Z" fill="#001ECB"/>
<path d="M153.447 69.258L154.002 68.0745L156.669 69.7738L156.738 69.7418L156.753 66.5758L158.036 66.7528L157.242 69.7993L157.31 69.8623L160.313 68.9036L160.553 70.1848L157.406 70.3748L157.365 70.4583L159.206 73.0125L158.069 73.6225L156.916 70.6936L156.84 70.6889L154.967 73.236L154.021 72.3329L156.45 70.3261L156.436 70.2529L153.447 69.258Z" fill="#001ECB"/>
<path d="M147.548 85.9493C147.597 85.1563 147.891 84.6273 148.43 84.3621C148.981 84.0977 149.672 84.0782 150.504 84.3038L157.199 86.154L157.36 83.5522L157.943 83.7748L157.786 86.3209L159.756 86.7411L159.669 88.1349L157.707 87.5846L157.458 91.6174L156.875 91.3948L157.121 87.4177L150.426 85.5675C149.864 85.4084 149.398 85.4044 149.028 85.5557C148.669 85.7201 148.475 86.0501 148.444 86.5456C148.42 86.9421 148.497 87.3013 148.676 87.6233C148.867 87.9461 149.104 88.2405 149.386 88.5067C149.68 88.786 149.956 89.0394 150.216 89.2669L150.73 89.7091L150.448 90.0461L149.915 89.6028C149.466 89.2268 149.053 88.8592 148.678 88.5002C148.302 88.1412 148.009 87.7562 147.798 87.3452C147.598 86.9473 147.515 86.482 147.548 85.9493Z" fill="#001ECB"/>
<path d="M145.645 98.8985C145.724 98.5598 145.915 98.3109 146.219 98.1518C146.523 97.9926 146.929 98.0544 147.437 98.3372L153.302 101.658C153.673 101.871 153.991 101.957 154.255 101.916C154.517 101.887 154.691 101.685 154.777 101.31C154.894 100.802 154.717 100.245 154.245 99.6395C153.783 99.0488 152.944 98.3776 151.729 97.6261C150.513 96.8745 148.847 96.0063 146.731 95.0214L147.019 93.7695L158.891 99.2968L159.402 97.0833L159.816 97.2744L159.529 99.5967L159.778 100.59L159.677 101.026L156.055 99.3308L151.875 96.9911L151.812 97.2632C152.293 97.5525 152.78 97.8748 153.271 98.2301C153.762 98.5854 154.203 98.9673 154.593 99.3757C154.995 99.7868 155.29 100.218 155.479 100.669C155.677 101.135 155.721 101.61 155.609 102.094C155.481 102.651 155.192 103.017 154.744 103.194C154.293 103.383 153.752 103.297 153.122 102.935L147.276 99.6184C147.218 99.5923 147.131 99.5533 147.016 99.5012C146.901 99.4491 146.783 99.4347 146.663 99.458C146.555 99.484 146.479 99.5938 146.434 99.7874C146.378 100.029 146.434 100.259 146.6 100.475C146.764 100.704 146.997 100.994 147.298 101.343L147.838 101.984L147.55 102.242L147.051 101.669C146.618 101.174 146.248 100.706 145.942 100.266C145.633 99.8382 145.534 99.3823 145.645 98.8985Z" fill="#001ECB"/>
<path d="M153.405 113.016C153.495 112.798 153.64 112.643 153.839 112.551C154.039 112.459 154.247 112.458 154.465 112.548C154.763 112.672 154.977 112.901 155.107 113.237C155.248 113.578 155.257 113.897 155.133 114.195C155.038 114.425 154.893 114.58 154.699 114.66C154.499 114.752 154.291 114.753 154.073 114.663C153.775 114.539 153.555 114.307 153.414 113.967C153.284 113.631 153.281 113.314 153.405 113.016ZM142.873 107.303C143.091 106.776 143.438 106.456 143.915 106.344C144.391 106.233 144.91 106.374 145.472 106.768L151.48 110.949L152.684 108.042L153.097 108.213L152.059 111.35L152.14 112.371L151.969 112.784L144.995 107.92C144.661 107.688 144.368 107.587 144.114 107.616C143.855 107.656 143.661 107.832 143.533 108.141C143.386 108.497 143.404 108.907 143.587 109.373C143.777 109.855 144.057 110.414 144.425 111.05L144.767 111.635L144.39 111.862L144.031 111.27C143.475 110.341 143.085 109.581 142.859 108.991C142.645 108.405 142.649 107.842 142.873 107.303Z" fill="#001ECB"/>
<path d="M138.321 116.389C138.808 115.611 139.329 115.095 139.883 114.841C140.437 114.588 140.924 114.593 141.345 114.856C141.608 115.021 141.757 115.216 141.791 115.443C141.835 115.675 141.792 115.897 141.66 116.108C141.515 116.339 141.349 116.476 141.161 116.52C140.972 116.563 140.778 116.558 140.576 116.505C140.379 116.47 140.205 116.42 140.055 116.355L139.298 116.057C139.156 116.143 138.966 116.376 138.729 116.755C138.268 117.491 138.088 118.14 138.191 118.702C138.297 119.281 138.576 119.713 139.028 119.996C139.407 120.233 139.803 120.327 140.214 120.277C140.62 120.238 141.032 120.129 141.45 119.952C141.862 119.785 142.288 119.62 142.727 119.456C143.167 119.292 143.609 119.194 144.052 119.165C144.489 119.145 144.923 119.27 145.354 119.54C145.786 119.81 146.108 120.173 146.321 120.629C146.534 121.084 146.607 121.599 146.541 122.172C146.485 122.752 146.256 123.363 145.854 124.005C145.42 124.7 144.966 125.155 144.494 125.372C144.021 125.589 143.616 125.592 143.28 125.381C143.08 125.256 142.951 125.087 142.893 124.875C142.84 124.681 142.878 124.478 143.01 124.268C143.175 124.005 143.399 123.881 143.682 123.897C143.964 123.913 144.241 123.962 144.512 124.044L144.976 124.18C145.023 124.151 145.094 124.086 145.187 123.983C145.281 123.881 145.384 123.74 145.496 123.561C145.897 122.919 146.046 122.353 145.943 121.864C145.833 121.385 145.593 121.03 145.225 120.8C144.889 120.589 144.518 120.503 144.112 120.542C143.711 120.598 143.296 120.712 142.867 120.883C142.438 121.053 142.001 121.212 141.558 121.359C141.108 121.517 140.659 121.602 140.211 121.615C139.768 121.645 139.336 121.528 138.915 121.265C138.652 121.1 138.404 120.864 138.171 120.558C137.932 120.261 137.755 119.901 137.639 119.478C137.528 119.071 137.52 118.605 137.615 118.078C137.703 117.563 137.938 117 138.321 116.389Z" fill="#001ECB"/>
<path d="M130.103 127.32C130.433 127.001 130.8 126.854 131.204 126.879C131.607 126.922 132.028 127.171 132.467 127.627C132.924 128.1 133.304 128.691 133.607 129.399C133.91 130.106 134.138 130.879 134.289 131.716C134.432 132.561 134.5 133.418 134.493 134.287L134.484 135.511C134.654 135.348 134.858 135.211 135.097 135.101C135.345 135 135.592 134.891 135.84 134.772C136.079 134.663 136.288 134.522 136.467 134.349C136.619 134.203 136.709 134.055 136.738 133.906C136.776 133.767 136.778 133.661 136.744 133.59L136.344 133.847C136.291 133.881 136.167 133.931 135.973 133.998C135.787 134.073 135.595 134.009 135.397 133.803C135.208 133.606 135.128 133.39 135.159 133.153C135.198 132.926 135.289 132.743 135.432 132.605C135.548 132.493 135.721 132.422 135.95 132.391C136.178 132.36 136.405 132.461 136.629 132.693C136.836 132.907 136.984 133.187 137.074 133.531C137.173 133.884 137.189 134.239 137.121 134.598C137.044 134.965 136.876 135.274 136.617 135.524C136.411 135.722 136.212 135.828 136.018 135.842C135.816 135.865 135.632 135.844 135.467 135.78C135.292 135.724 135.144 135.668 135.022 135.613C134.891 135.567 134.799 135.57 134.745 135.622L134.718 135.647L135.523 136.32L134.611 137.199L134.085 134.293C133.957 133.588 133.794 132.883 133.596 132.177C133.389 131.48 133.147 130.834 132.868 130.241C132.597 129.657 132.277 129.173 131.906 128.788C131.329 128.19 130.826 128.097 130.397 128.511C130.129 128.769 129.988 129.07 129.973 129.412C129.958 129.754 129.996 130.079 130.087 130.388C130.177 130.697 130.252 130.918 130.312 131.051L130.525 131.594C130.827 131.907 131.124 132.242 131.416 132.598C131.699 132.963 131.947 133.319 132.16 133.665C132.373 134.011 132.513 134.326 132.578 134.608C132.643 134.89 132.599 135.104 132.447 135.251C132.358 135.337 132.252 135.37 132.13 135.35C132.007 135.33 131.851 135.222 131.661 135.026C131.429 134.784 131.215 134.473 131.02 134.092C130.816 133.72 130.643 133.335 130.501 132.937C130.35 132.548 130.238 132.199 130.165 131.891L129.867 131.582C129.798 131.511 129.686 131.404 129.531 131.26C129.384 131.126 129.215 130.996 129.024 130.869C128.833 130.76 128.637 130.691 128.436 130.661C128.234 130.649 128.048 130.724 127.878 130.888C127.619 131.138 127.507 131.496 127.543 131.962C127.569 132.436 127.696 132.952 127.923 133.509C128.141 134.075 128.416 134.62 128.749 135.144C129.082 135.685 129.429 136.144 129.791 136.519C130.153 136.894 130.473 137.146 130.752 137.274C131.039 137.411 131.292 137.486 131.511 137.499C131.73 137.511 131.919 137.528 132.077 137.548C132.164 137.567 132.286 137.596 132.444 137.634C132.61 137.681 132.762 137.776 132.899 137.919C133.063 138.089 133.147 138.283 133.152 138.503C133.157 138.722 133.074 138.914 132.905 139.078C132.628 139.345 132.272 139.369 131.837 139.15C131.401 138.949 130.852 138.505 130.189 137.817C129.499 137.102 128.894 136.358 128.372 135.585C127.86 134.821 127.461 134.076 127.175 133.351C126.899 132.635 126.757 131.987 126.75 131.407C126.742 130.845 126.899 130.409 127.221 130.099C127.48 129.849 127.759 129.745 128.056 129.785C128.345 129.834 128.628 129.958 128.906 130.156C129.183 130.354 129.416 130.552 129.606 130.748L129.753 130.606C129.669 130.394 129.583 130.089 129.493 129.693C129.413 129.305 129.407 128.897 129.476 128.468C129.545 128.039 129.754 127.656 130.103 127.32Z" fill="#001ECB"/>
<path d="M121.707 134.788C122.115 134.507 122.588 134.46 123.125 134.648C123.658 134.853 124.183 135.374 124.698 136.209C124.98 136.663 125.242 137.206 125.482 137.84C125.719 138.49 125.905 139.176 126.04 139.897C126.165 140.625 126.221 141.34 126.208 142.043C126.184 142.753 126.061 143.395 125.839 143.97C125.607 144.552 125.241 145.016 124.74 145.361C124.484 145.537 124.245 145.649 124.022 145.697C123.796 145.762 123.622 145.784 123.501 145.762L122.977 146.575L122.609 146.829L119.204 138.638C119.147 138.512 119.057 138.37 118.934 138.214C118.818 138.067 118.663 138.061 118.469 138.195C118.264 138.336 118.15 138.542 118.127 138.815C118.093 139.094 118.07 139.465 118.056 139.926L118.023 140.763L117.635 140.759L117.654 140C117.672 139.324 117.711 138.725 117.772 138.2C117.839 137.686 118.068 137.296 118.456 137.028C118.63 136.908 118.834 136.843 119.068 136.833C119.284 136.819 119.499 136.912 119.712 137.112C119.932 137.322 120.12 137.682 120.276 138.193L121.483 142.11L121.713 141.952L121.418 140.934C121.255 140.368 121.11 139.775 120.983 139.153C120.864 138.542 120.799 137.946 120.79 137.364C120.771 136.789 120.831 136.274 120.968 135.817C121.103 135.378 121.349 135.035 121.707 134.788ZM121.822 135.613C121.567 135.789 121.401 136.084 121.325 136.499C121.238 136.92 121.223 137.412 121.28 137.976C121.327 138.547 121.417 139.148 121.551 139.78C121.691 140.422 121.856 141.054 122.044 141.678C122.23 142.319 122.42 142.912 122.614 143.456C122.808 144.001 122.984 144.453 123.141 144.812C123.304 144.895 123.533 144.933 123.829 144.925C124.122 144.934 124.412 144.841 124.698 144.643C125.137 144.341 125.391 143.887 125.457 143.284C125.52 142.697 125.417 142.022 125.147 141.259L123.655 136.928C123.457 136.356 123.182 135.935 122.83 135.665C122.475 135.412 122.139 135.395 121.822 135.613Z" fill="#001ECB"/>
<path d="M114.222 136.035C114.806 135.762 115.294 135.677 115.686 135.782C116.077 135.887 116.349 136.102 116.502 136.428C116.633 136.709 116.654 136.987 116.563 137.263C116.479 137.522 116.296 137.717 116.015 137.848C115.633 138.027 115.314 138.005 115.059 137.781C114.815 137.553 114.636 137.287 114.522 136.984L114.327 136.479C113.461 136.884 112.883 137.538 112.592 138.441C112.297 139.333 112.255 140.401 112.467 141.645C112.684 142.9 113.134 144.259 113.817 145.72C114.496 147.171 115.109 148.131 115.658 148.601C116.195 149.076 116.655 149.224 117.037 149.045C117.206 148.966 117.34 148.828 117.439 148.631C117.533 148.45 117.64 148.167 117.762 147.781L117.934 147.228L118.248 147.328L118.091 147.915C117.968 148.384 117.824 148.808 117.658 149.186C117.481 149.571 117.202 149.852 116.82 150.031C116.257 150.294 115.647 150.175 114.988 149.674C114.329 149.174 113.648 148.17 112.943 146.664C112.512 145.742 112.18 144.856 111.947 144.005C111.707 143.172 111.544 142.426 111.456 141.768C111.367 141.111 111.342 140.588 111.38 140.2C111.117 140.927 110.913 141.693 110.77 142.5C110.621 143.324 110.533 144.132 110.506 144.925C110.469 145.724 110.494 146.466 110.581 147.151C110.674 147.848 110.826 148.421 111.036 148.871C111.22 149.265 111.421 149.548 111.638 149.72C111.861 149.903 112.079 150.062 112.292 150.195C112.494 150.334 112.658 150.538 112.784 150.808C112.921 151.1 112.953 151.359 112.881 151.585C112.797 151.816 112.637 151.987 112.401 152.097C112.142 152.218 111.879 152.197 111.611 152.035C111.348 151.884 111.088 151.532 110.831 150.981C110.531 150.34 110.309 149.574 110.166 148.682C110.017 147.806 109.945 146.86 109.949 145.844C109.959 144.839 110.055 143.828 110.237 142.811C110.413 141.81 110.68 140.857 111.037 139.95C111.377 139.037 111.815 138.243 112.349 137.569C112.878 136.883 113.502 136.372 114.222 136.035Z" fill="#001ECB"/>
<path d="M96.9128 153.411L98.0984 153.962L96.4093 156.634L96.4416 156.704L99.6076 156.707L99.4355 157.991L96.386 157.208L96.3233 157.276L97.2934 160.276L96.0131 160.52L95.8111 157.374L95.7275 157.333L93.1803 159.184L92.566 158.05L95.4905 156.885L95.4948 156.809L92.9406 154.946L93.8401 153.997L95.8562 156.418L95.9294 156.404L96.9128 153.411Z" fill="#001ECB"/>
</g>
<defs>
<clipPath id="clip0_888_12667">
<rect width="166" height="166" fill="white"/>
</clipPath>
</defs>
</svg>
